<svg width="24" height="17" viewBox="0 0 24 17" xmlns="http://www.w3.org/2000/svg"><title>discord</title><path d="M20.965 2.219C18.085.056 15.341.116 15.341.116l-.282.32c3.402 1.039 4.983 2.539 4.983 2.539a16.248 16.248 0 0 0-6.022-1.919c-1.44-.158-2.82-.12-4.043.038-.12 0-.218.022-.342.039-.701.06-2.402.32-4.543 1.26-.74.343-1.18.582-1.18.582S5.575 1.394 9.173.355l-.2-.24s-2.74-.06-5.62 2.1c0 0-2.881 5.222-2.881 11.663 0 0 1.68 2.902 6.103 3.039 0 0 .74-.902 1.342-1.663-2.539-.76-3.5-2.36-3.5-2.36s.2.142.56.343a.266.266 0 0 0 .08.06c.06.038.12.06.18.098.5.282 1 .5 1.462.68.82.32 1.8.64 2.94.859 1.5.282 3.261.38 5.18.02.94-.157 1.902-.44 2.902-.858a11.47 11.47 0 0 0 2.3-1.18s-1 1.641-3.62 2.38c.598.762 1.32 1.62 1.32 1.62 4.42-.14 6.12-3.038 6.12-3.038.005-6.441-2.876-11.66-2.876-11.66zm-12.544 9.8c-1.12 0-2.039-1-2.039-2.223 0-1.222.902-2.222 2.04-2.222 1.14 0 2.06 1 2.038 2.222 0 1.223-.902 2.223-2.039 2.223zm7.3 0c-1.12 0-2.039-1-2.039-2.223 0-1.222.902-2.222 2.04-2.222 1.14 0 2.038 1 2.038 2.222 0 1.223-.898 2.223-2.039 2.223z" fill="#FFF"/></svg>