<svg width="23" height="25" viewBox="0 0 23 25" xmlns="http://www.w3.org/2000/svg"><title>github</title><path d="M8.242 23.904V22.27c-4.5 1-5.5-2.2-5.5-2.2-.7-1.9-1.8-2.4-1.8-2.4-1.5-1 .1-1 .1-1 1.6.1 2.5 1.7 2.5 1.7 1.5 2.5 3.8 1.8 4.7 1.4.1-1.1.6-1.8 1-2.2-3.6-.4-7.4-1.8-7.4-8.1 0-1.8.6-3.2 1.7-4.4-.1-.3-.7-2 .2-4.2 0 0 1.4-.4 4.5 1.7 1.3-.4 2.7-.5 4.1-.5 1.4 0 2.8.2 4.1.5 3.1-2.1 4.5-1.7 4.5-1.7.9 2.2.3 3.9.2 4.3 1 1.1 1.7 2.6 1.7 4.4 0 6.3-3.8 7.6-7.4 8 .6.5 1.1 1.5 1.1 3v3.335c0 .4-8.3.4-8.3 0z" fill="#FFF" fill-rule="evenodd"/></svg>