<?xml version="1.0" encoding="utf-8"?>
<!-- Generator: Adobe Illustrator 21.0.2, SVG Export Plug-In . SVG Version: 6.00 Build 0)  -->
<svg version="1.1" id="Layer_1" xmlns="http://www.w3.org/2000/svg" xmlns:xlink="http://www.w3.org/1999/xlink" x="0px" y="0px"
	 viewBox="0 0 164.5 106" style="enable-background:new 0 0 164.5 106;" xml:space="preserve">
<style type="text/css">
	.st0{fill:none;stroke:#121212;stroke-width:3;stroke-miterlimit:10;}
	.st1{fill:#121212;}
</style>
<g>
	<path class="st0" d="M101.8,104H62.7c-3.9,0-7-3.1-7-7V22.2c0-3.9,3.1-7,7-7h39.2c3.9,0,7,3.1,7,7V97
		C108.8,100.9,105.7,104,101.8,104z"/>
	<circle class="st1" cx="82.2" cy="96" r="2.8"/>
</g>
<path class="st1" d="M71.7,61.3c-0.9,0-1.7,0.8-1.7,1.7c0,0.9,0.8,1.7,1.7,1.7c0.9,0,1.7-0.8,1.7-1.7C73.4,62.1,72.7,61.3,71.7,61.3
	z M92.3,54.5c-0.9,0-1.7,0.8-1.7,1.7c0,1.4-0.2,1.7-1.7,1.7c-0.9,0-1.7,0.8-1.7,1.7c0,0,0,0,0,0.1c0,1.3-0.2,1.6-1.7,1.6
	c-0.1,0-0.1,0-0.1,0c-0.9,0.1-1.6,0.8-1.6,1.7c0,0.9,0.8,1.7,1.7,1.7c0.9,0,1.7-0.7,1.7-1.6c0,0,0-0.1,0-0.1c0-1.2,0.4-1.7,1.7-1.7
	c0,0,0,0,0.1,0c0.9,0,1.7-0.8,1.7-1.7v0c0-1.2,0.4-1.7,1.7-1.7c0.9,0,1.7-0.8,1.7-1.7C94,55.2,93.2,54.5,92.3,54.5z M82,57.9
	C82,57.9,82,57.9,82,57.9c-1.5,0-1.7-0.3-1.7-1.7l0,0c0,0,0,0,0,0c0-0.9-0.8-1.7-1.7-1.7c-0.9,0-1.7,0.8-1.7,1.7c0,0,0,0,0,0
	c0,1.3-0.2,1.7-1.7,1.7c0,0,0,0,0,0c0,0,0,0,0,0c-0.9,0-1.7,0.8-1.7,1.7c0,0.9,0.8,1.7,1.7,1.7c0.9,0,1.7-0.7,1.7-1.7c0,0,0,0,0-0.1
	c0-1.2,0.4-1.7,1.7-1.7l0,0h0l0,0c1.3,0,1.7,0.5,1.7,1.7c0,0,0,0,0,0c0,0.9,0.8,1.7,1.7,1.7s1.7-0.8,1.7-1.7
	C83.7,58.7,83,57.9,82,57.9z"/>
</svg>
