<svg id="Layer_1" xmlns="http://www.w3.org/2000/svg" viewBox="0 0 164.5 106"><style>.st0{fill:none;stroke:#0e1122;stroke-width:3;stroke-miterlimit:10}.st1{fill:#0e1122}.st2{fill:#121212}</style><path class="st0" d="M134.3 104h-104c-3.9 0-7-3.1-7-7V42.2c0-3.9 3.1-7 7-7h104c3.9 0 7 3.1 7 7V97c0 3.9-3.2 7-7 7z"/><circle class="st1" cx="31" cy="42.4" r="2.8"/><circle class="st1" cx="39" cy="42.4" r="2.8"/><circle class="st1" cx="47" cy="42.4" r="2.8"/><path class="st2" d="M71.7 73.3c-.9 0-1.7.8-1.7 1.7 0 .9.8 1.7 1.7 1.7.9 0 1.7-.8 1.7-1.7 0-.9-.7-1.7-1.7-1.7zm20.6-6.8c-.9 0-1.7.8-1.7 1.7 0 1.4-.2 1.7-1.7 1.7-.9 0-1.7.8-1.7 1.7v.1c0 1.3-.2 1.6-1.7 1.6h-.1c-.9.1-1.6.8-1.6 1.7 0 .9.8 1.7 1.7 1.7.9 0 1.7-.7 1.7-1.6V75c0-1.2.4-1.7 1.7-1.7h.1c.9 0 1.7-.8 1.7-1.7 0-1.2.4-1.7 1.7-1.7.9 0 1.7-.8 1.7-1.7s-.9-1.7-1.8-1.7zM82 69.9c-1.5 0-1.7-.3-1.7-1.7 0-.9-.8-1.7-1.7-1.7-.9 0-1.7.8-1.7 1.7 0 1.3-.2 1.7-1.7 1.7-.9 0-1.7.8-1.7 1.7 0 .9.8 1.7 1.7 1.7.9 0 1.7-.7 1.7-1.7v-.1c0-1.2.4-1.7 1.7-1.7 1.3 0 1.7.5 1.7 1.7 0 .9.8 1.7 1.7 1.7s1.7-.8 1.7-1.7c0-.8-.7-1.6-1.7-1.6z"/></svg>