<svg id="Layer_1" xmlns="http://www.w3.org/2000/svg" viewBox="0 0 164.5 106"><style>.st0{fill:none;stroke:#121212;stroke-width:3;stroke-miterlimit:10}.st1{fill:#121212}</style><path class="st0" d="M141.3 92.4v-61c0-3.2-2.6-5.8-5.8-5.8H29c-3.2 0-5.8 2.6-5.8 5.8v61h-6.3c-3.2 0-5.8 2.6-5.8 5.8 0 3.2 2.6 5.8 5.8 5.8h130.7c3.2 0 5.8-2.6 5.8-5.8 0-3.2-2.6-5.8-5.8-5.8h-6.3z"/><circle cx="82.2" cy="33" r="2.8"/><path class="st1" d="M71.7 69.3c-.9 0-1.7.8-1.7 1.7 0 .9.8 1.7 1.7 1.7.9 0 1.7-.8 1.7-1.7 0-.9-.7-1.7-1.7-1.7zm20.6-6.8c-.9 0-1.7.8-1.7 1.7 0 1.4-.2 1.7-1.7 1.7-.9 0-1.7.8-1.7 1.7v.1c0 1.3-.2 1.6-1.7 1.6h-.1c-.9.1-1.6.8-1.6 1.7 0 .9.8 1.7 1.7 1.7.9 0 1.7-.7 1.7-1.6V71c0-1.2.4-1.7 1.7-1.7h.1c.9 0 1.7-.8 1.7-1.7 0-1.2.4-1.7 1.7-1.7.9 0 1.7-.8 1.7-1.7-.1-1-.9-1.7-1.8-1.7zM82 65.9c-1.5 0-1.7-.3-1.7-1.7 0-.9-.8-1.7-1.7-1.7-.9 0-1.7.8-1.7 1.7 0 1.3-.2 1.7-1.7 1.7-.9 0-1.7.8-1.7 1.7 0 .9.8 1.7 1.7 1.7.9 0 1.7-.7 1.7-1.7v-.1c0-1.2.4-1.7 1.7-1.7 1.3 0 1.7.5 1.7 1.7 0 .9.8 1.7 1.7 1.7s1.7-.8 1.7-1.7c0-.8-.7-1.6-1.7-1.6z"/></svg>