<svg width="29" height="25" viewBox="0 0 29 25" xmlns="http://www.w3.org/2000/svg"><title>reddit</title><path d="M28.712 12.632a3.081 3.081 0 0 0-3.188-2.963 3.086 3.086 0 0 0-2.016.853 14.975 14.975 0 0 0-8.11-2.592l1.366-6.57 4.508.947a2.106 2.106 0 1 0 4.189-.45 2.106 2.106 0 0 0-3.911-.838L16.387-.012a.653.653 0 0 0-.78.497v.01l-1.555 7.31a15.088 15.088 0 0 0-8.215 2.591 3.072 3.072 0 0 0-4.345.136 3.072 3.072 0 0 0 .963 4.901c-.02.309-.02.618 0 .927 0 4.717 5.498 8.555 12.278 8.555S27.01 21.082 27.01 16.36c.02-.31.02-.618 0-.927a3.075 3.075 0 0 0 1.701-2.801zM7.65 14.742c0-1.162.948-2.11 2.11-2.11s2.11.948 2.11 2.11-.948 2.11-2.11 2.11a2.117 2.117 0 0 1-2.11-2.11zm12.236 5.79a8.087 8.087 0 0 1-5.205 1.624 8.087 8.087 0 0 1-5.204-1.623.568.568 0 1 1 .801-.801 6.88 6.88 0 0 0 4.383 1.324 6.933 6.933 0 0 0 4.403-1.283.593.593 0 0 1 .832.011c.225.23.22.607-.01.832v-.083zm-.377-3.607a2.114 2.114 0 0 1-2.11-2.11c0-1.162.947-2.11 2.11-2.11 1.162 0 2.11.948 2.11 2.11a2.106 2.106 0 0 1-2.021 2.189h-.105l.016-.079z" fill="#FFF"/></svg>