<svg width="23" height="19" viewBox="0 0 23 19" xmlns="http://www.w3.org/2000/svg"><title>twitter</title><path d="M7.49 18.686c8.443 0 13.06-6.995 13.06-13.06 0-.195-.008-.397-.016-.593a9.328 9.328 0 0 0 2.29-2.379 9.13 9.13 0 0 1-2.635.72A4.622 4.622 0 0 0 22.208.839a9.119 9.119 0 0 1-2.912 1.11A4.577 4.577 0 0 0 15.948.5a4.585 4.585 0 0 0-4.466 5.63 13.031 13.031 0 0 1-9.457-4.797 4.525 4.525 0 0 0-.623 2.304 4.59 4.59 0 0 0 2.042 3.82 4.623 4.623 0 0 1-2.08-.57v.06a4.59 4.59 0 0 0 3.686 4.496 4.56 4.56 0 0 1-2.072.083 4.6 4.6 0 0 0 4.286 3.19 9.205 9.205 0 0 1-5.697 1.966c-.367 0-.735-.022-1.095-.06a12.858 12.858 0 0 0 7.017 2.064" fill="#FFF"/></svg>